<?xml version="1.0" standalone="no"?>
<!DOCTYPE svg PUBLIC "-//W3C//DTD SVG 20010904//EN"
 "http://www.w3.org/TR/2001/REC-SVG-20010904/DTD/svg10.dtd">
<svg version="1.0" xmlns="http://www.w3.org/2000/svg"
 width="512.000000pt" height="512.000000pt" viewBox="0 0 512.000000 512.000000"
 preserveAspectRatio="xMidYMid meet">
<metadata>
Created by potrace 1.14, written by Peter Selinger 2001-2017
</metadata>
<g transform="translate(0.000000,512.000000) scale(0.100000,-0.100000)"
fill="#000000" stroke="none">
<path d="M1662 4903 c-4 -1 -18 -4 -32 -7 -29 -6 -83 -52 -95 -81 -5 -11 -10
-537 -11 -1170 -1 -632 -3 -1153 -3 -1156 -1 -3 -53 -5 -117 -4 -270 5 -499
-88 -691 -280 -114 -115 -221 -306 -248 -444 -2 -11 -6 -24 -8 -29 -17 -26
-26 -243 -15 -332 10 -80 30 -175 39 -185 5 -5 9 -16 10 -25 0 -8 11 -37 24
-65 13 -27 21 -53 19 -57 -3 -5 -1 -8 5 -8 5 0 16 -12 23 -27 26 -51 43 -77
70 -108 16 -16 28 -33 28 -37 0 -12 114 -120 160 -151 25 -17 47 -33 50 -36 8
-10 62 -40 103 -59 20 -9 37 -20 37 -24 0 -4 6 -5 14 -2 7 3 22 -3 31 -13 10
-10 20 -17 22 -15 8 6 44 1 40 -5 -3 -5 9 -9 27 -10 38 -3 58 -7 71 -14 6 -3
23 -5 38 -4 20 1 26 -3 22 -13 -4 -12 -3 -12 9 -3 17 15 136 13 155 -3 12 -9
13 -8 6 3 -6 11 -2 13 19 9 14 -3 26 -2 26 3 0 4 18 6 40 5 24 -2 37 1 33 7
-4 6 0 8 10 4 9 -3 19 -2 22 3 5 8 82 26 98 22 4 -1 7 3 7 8 0 6 6 10 14 10
17 0 118 50 127 63 3 5 8 7 10 6 4 -3 56 29 75 46 7 5 24 19 39 30 65 47 194
200 232 275 10 19 25 46 33 59 17 28 49 115 56 151 2 14 7 32 11 40 3 8 7 22
8 30 10 57 17 125 19 186 2 40 6 76 10 82 3 5 2 12 -1 16 -11 10 -10 928 0
950 5 10 5 16 0 13 -4 -3 -8 210 -8 474 0 313 3 479 10 479 7 0 7 3 0 8 -14
10 -14 484 0 494 6 5 6 8 -2 8 -6 0 -9 8 -7 18 5 15 20 17 150 15 104 -1 149
-5 161 -15 9 -7 14 -8 10 -2 -8 13 44 21 103 16 33 -3 37 -7 53 -53 10 -27 15
-54 11 -61 -4 -6 -3 -8 3 -5 10 6 54 -103 56 -140 1 -12 4 -20 8 -17 4 2 12
-11 18 -29 l12 -34 97 0 c54 0 104 -3 110 -7 7 -4 12 -4 12 1 0 4 23 8 50 8
28 0 50 -4 50 -8 0 -5 5 -5 11 -2 15 10 615 9 630 -1 8 -5 10 -3 4 6 -5 9 -4
11 3 6 8 -5 11 -223 11 -789 l-1 -783 -121 1 c-176 0 -272 -19 -402 -80 -28
-14 -57 -25 -63 -25 -7 0 -12 -3 -12 -7 0 -5 -15 -16 -33 -26 -63 -36 -153
-112 -207 -175 -30 -35 -61 -70 -67 -77 -7 -8 -13 -16 -13 -19 0 -3 -15 -29
-33 -58 -33 -52 -89 -181 -90 -205 0 -7 -5 -13 -10 -13 -6 0 -8 -3 -5 -6 4 -3
2 -20 -3 -37 -11 -39 -23 -127 -30 -222 -1 -15 11 -157 15 -175 1 -8 6 -33 10
-55 9 -47 43 -149 62 -186 7 -15 10 -29 7 -33 -4 -3 -1 -6 5 -6 7 0 12 -5 12
-11 0 -6 21 -43 47 -82 27 -40 50 -76 52 -81 5 -12 103 -110 148 -148 70 -60
205 -135 285 -158 26 -8 45 -17 43 -20 -2 -3 8 -5 23 -5 15 1 32 -1 37 -4 21
-11 44 -13 185 -16 130 -3 156 0 250 24 58 15 114 32 125 39 11 6 38 19 60 29
22 9 46 23 53 30 7 7 18 13 23 13 5 0 22 11 37 25 15 14 31 25 36 25 10 0 137
128 183 185 33 40 133 224 133 243 0 6 5 23 12 39 13 34 15 40 22 76 4 15 9
39 12 55 3 15 7 41 9 57 3 17 5 787 5 1713 l1 1682 -22 40 c-44 78 -4 74 -813
75 l-719 1 -19 54 c-10 30 -21 62 -25 70 -3 8 -7 17 -7 20 -1 3 -4 10 -7 15
-3 6 -12 30 -19 55 -7 25 -17 50 -20 55 -4 6 -10 22 -14 38 -4 16 -13 27 -24
28 -31 2 -1332 4 -1340 2z"/>
<path d="M2360 3920 c-9 -6 -10 -10 -3 -10 6 0 15 5 18 10 8 12 4 12 -15 0z"/>
<path d="M3839 3673 c-13 -16 -12 -17 4 -4 16 13 21 21 13 21 -2 0 -10 -8 -17
-17z"/>
<path d="M3075 3640 c3 -5 8 -10 11 -10 2 0 4 5 4 10 0 6 -5 10 -11 10 -5 0
-7 -4 -4 -10z"/>
<path d="M3350 3638 c0 -4 4 -8 9 -8 6 0 12 4 15 8 3 5 -1 9 -9 9 -8 0 -15 -4
-15 -9z"/>
<path d="M3796 3607 c3 -10 9 -15 12 -12 3 3 0 11 -7 18 -10 9 -11 8 -5 -6z"/>
<path d="M4555 531 c-3 -5 -2 -12 3 -15 5 -3 9 1 9 9 0 17 -3 19 -12 6z"/>
</g>
</svg>
